<?xml version="1.0" encoding="utf-8"?>
<!-- Generator: Adobe Illustrator 26.0.2, SVG Export Plug-In . SVG Version: 6.00 Build 0)  -->
<svg version="1.1" id="Layer_1" xmlns="http://www.w3.org/2000/svg" xmlns:xlink="http://www.w3.org/1999/xlink" x="0px" y="0px"
	 viewBox="0 0 512 376.9" style="enable-background:new 0 0 512 376.9;" xml:space="preserve">
<style type="text/css">
	.st0{fill:#136878;}
</style>
<path class="st0" d="M469.2,146.8L469.2,146.8l-2.3,0c-0.6,0-1.1,0.2-1.6,0.7c-0.6,0.7-0.7,1.5-0.6,2.3c1.9,10,2.8,19.8,3.2,29
	h-29.1c-0.7,0-1.2,0.2-1.6,0.7c-0.5,0.5-0.7,1-0.7,2l0,8.3c0,1.7,1.1,2.6,2.5,2.6h28.9c-0.2,6.4-0.7,12.4-1.4,17.7
	c-0.5,3.8-1.1,7.6-1.8,11.4c-0.1,1,0.1,1.6,0.6,2.2c0.6,0.6,1.3,0.7,2,0.7l2.9,0l4.5,0c0.9,0,1.8-0.4,2.5-1c0.7-0.8,0.9-1.6,1-2.1
	c0.6-3.4,1.1-7.2,1.6-11.2c0.6-5.4,1.1-11.4,1.3-17.8h28.5c1.4,0,2.5-0.9,2.5-2.6l0-8.3c0-0.9-0.3-1.5-0.7-2c-0.4-0.4-1-0.7-1.6-0.7
	H481c-0.2-5.7-0.6-11.4-1.2-17.1c-0.4-3.9-1-7.9-1.7-12c-0.1-0.8-0.4-1.6-1.3-2.3c-0.6-0.4-1.3-0.7-1.9-0.7l-3.9,0l0,0l-0.8,0
	L469.2,146.8z M278,0c-18.8,0-37.1,2.3-54.8,6.7c-14.8,3.7-29,8.9-42.4,15.5c-4.8,2.4-9.5,4.9-14.1,7.6c-8.7,5.2-16.6,10.6-24,16.6
	c-5.4,4.3-10.5,8.9-15.4,13.8c-3,3-5.7,5.8-8.6,9.1c-0.3,0.3-0.5,0.6-0.8,0.9c-0.5,0.5-1,1.3-0.7,2.4c0.1,0.4,0.3,0.7,0.5,0.9
	c0.5,0.4,1.1,0.5,1.6,0.5c0.6,0,1.3-0.4,1.7-0.7c0.3-0.2,0.5-0.4,0.8-0.7c0.9-0.9,1.7-1.8,2.6-2.7c1.5-1.6,3.1-3.2,4.7-4.7
	c6.1-5.9,13.7-12.4,22.1-18.3c4.5-3.2,9.2-6.3,14.4-9.3c7.2-4.2,14.6-8,22.3-11.3c8.9-3.8,17.6-6.8,25.7-9.1c6-1.7,12-3.1,18.1-4.3
	c5.5-1,11-1.9,16.5-2.5c8.5-1,17-1.5,25.5-1.5c19.7,0,39.8,2.7,59.2,8.1c6.9,1.9,13.7,4.2,20.4,6.9c8.6,3.4,16.5,7.1,25,11.9
	c15.6,8.7,29.5,19.4,42,32c5.7,5.7,11,11.9,15.9,18.3c5.1,6.8,9.8,14,13.8,21.5c2.1,3.9,4,7.8,5.8,11.8c3.3,7.4,5.3,13.5,5.3,13.5
	c0.2,0.6,0.4,0.8,0.6,1.2c0.6,0.8,1.5,1.3,2.5,1.3l8.1,0c0.6,0,0.9-0.1,1.2-0.3c0.3-0.2,0.7-0.6,0.9-1c0.2-0.5,0.3-1.2,0.1-1.8
	c-2.9-8.7-6.9-17.8-11.5-26.5c-7.3-13.6-18.4-30.3-34.5-46.1c-14.3-14-28.6-23.9-40.6-30.7c-14.9-8.6-30.8-15.2-47.5-20
	C319.9,2.9,298.9,0,278,0L278,0z M241,185.1c0.3,0,0.3,0.1,0.6,0.1c3.1,0.4,5.5,0.9,7.7,1.4c2.5,0.6,4.6,1.4,6.2,2.3
	c1.2,0.7,2.1,1.4,2.9,2.1c0.4,0.4,0.8,0.9,1.2,1.4c0.5,0.8,1.3,2.2,1.7,3c0.2,0.5,0.4,1,0.6,1.5c0.4,1.1,0.6,2.3,0.8,3.5
	c0.3,2,0.2,3.9,0,5.8c-0.3,1.9-0.9,4.6-3.1,7.5c-1.8,2.5-4.4,4.4-7.4,5.9c-3.6,1.8-7.5,2.6-11.3,3.1c-7.2,0.8-15-0.6-21.4-3.8
	c-2-1-3.8-2.1-5.4-3.3c-1.6-1.2-3-2.5-4.1-4c-1.7-2.4-2.4-4.5-2.4-6.6c0-2,0.6-3.8,1.6-5.2c1.1-1.7,2.9-2.9,4.9-3.7
	c3.4-1.4,7.6-1.8,11-1.7c4.1,0.2,11.5,1.4,15.4,2.8c1.1,0.4,5.1,1.9,5.8,2.7c0.5,0.5,0.8,1.2,0.6,1.9c-0.9,2.7-7.5,4.2-9.5,4.5
	c-5.1,0.8-7.8-1.2-13.7-3.5c-1.5-0.6-3.4-1.2-4.9-1.3c-1.5-0.1-3.1,0-4.4,0.7c-1.3,0.7-2,1.8-1.9,3.1c0,1.2,0.9,2.2,2.9,3.1
	c0.8,0.3,1.6,0.7,2.5,0.9c2.1,0.7,4.1,0.9,6.3,1c4.4,0.1,9-0.2,13.5-1.2c4.8-1,9.4-2.7,13.3-5.5c1-0.7,2-1.8,2-3.1
	c0-2.7-4.7-4.4-4.7-4.4c-4.2-1.8-11.2-2.7-16.3-3.2c-1-0.1-1.9-0.2-2.7-0.3c-0.9-0.1-2-0.2-3-0.3c-0.8-0.1-1.5-0.1-2.4-0.2
	c-0.9-0.1-1.8-0.1-2.7-0.2c-1.5-0.1-3-0.3-4.6-0.4c-1.3-0.1-2.6-0.3-3.9-0.5c-1.2-0.2-2.3-0.4-3.5-0.9c-1-0.4-2.1-1.1-2.9-2
	c-0.7-0.8-1.3-1.7-1.5-2.7c-0.9-3.4,0.2-7.6,2.1-10.4c5-7.1,16.6-9.9,25.3-10.9c8.4-1.1,22-1,30.3,3.4c1.3,0.7,1.9,1.3,1.7,2.7
	c-0.5,2.6-2.5,4.2-4.8,4.9c-2.4,0.8-7.5,1.1-9.7,1.2c-10,0.6-22,0.3-31.5,2.9c-0.7,0.2-2,0.6-2.4,1c-0.8,0.9,0,1.4,1.1,1.7
	c0.8,0.3,1.8,0.4,3.2,0.6L241,185.1z M314.6,212.1c-1.9,4.4-6.8,9-12.8,6.1c-6-2.9-15.6-22.5-15.6-22.5s-3.6-7.3-4.3-7.1
	c0,0-0.8-1.4-1.3,6.6c-0.5,7.9,0.1,23.5-3.1,25.9c-3,2.4-6.6,1.5-8.5-1.4c-1.7-2.8-2.4-9.5-1.5-21.3c1.1-11.8,3.8-24.3,7.3-28.2
	c3.5-3.9,6.3-1.1,7.4,0c0,0,4.7,4.2,12.4,16.7l1.3,2.3c0,0,7,11.7,7.7,11.7c0,0,0.6,0.5,1.1,0.1c0.7-0.2,0.4-4,0.4-4
	s-1.5-12.8-7.8-34.5c0,0-1-2.7-0.3-5.2c0.6-2.6,3.2-1.4,3.2-1.4s9.9,5,14.7,21.1C319.7,193.2,316.5,207.7,314.6,212.1 M369.7,176.8
	c-7,1.6-25.4,2.5-25.4,2.5l-2.3,7.3c0,0,9.2-0.8,15.9-0.1c0,0,2.2-0.3,2.4,2.5c0.1,2.5-0.2,5.2-0.2,5.2s-0.1,1.6-2.5,2.1
	c-2.5,0.4-19.8,1.1-19.8,1.1l-2.8,9.5c0,0-1,2.2,1.3,1.6c2.2-0.6,20.3-4,22.7-3.5c2.5,0.6,5.3,4,4.5,7.1c-1,3.8-19.1,15.4-30.1,14.6
	c0,0-5.8,0.4-10.7-7.4c-4.6-7.5,1.7-21.6,1.7-21.6s-2.9-6.6-0.8-8.8c0,0,1.2-1.1,4.9-1.4l4.4-9.2c0,0-5,0.3-8.1-3.4
	c-2.8-3.5-3-5.1-0.9-6.1c2.3-1.1,23.3-5,37.8-4.5c0,0,5-0.5,9.4,8.2C371.2,172.4,373.3,176,369.7,176.8 M417.3,181.8
	c0,0-0.1-0.5-0.3-1.1c-0.6-1.1-2-2.3-5.4,1.6c-4.4,4.8-12.2,13.9-18.6,26.2c6.7-0.8,13.1-4.4,15-6.2c1.9-1.7,5.2-5,7.4-9.5
	c1.2-2.5,2.1-5.4,2.1-8.5C417.5,183.4,417.4,182.6,417.3,181.8 M420.8,202.5c-4.5,7.9-17.2,24.3-34.1,20.4c-2.1,5-4,10.1-5.8,15.5
	c-3,9.1-5.5,19.3-7.2,32.2c0,0-0.6,4-3.9,2.6c-2.6-0.9-6.5-4.5-8.6-9.7c-0.6-1.4-1-2.9-1.2-4.4c-0.3-2.5-0.3-5.4,0.1-8.6
	c0.7-5.8,2.4-12.7,5.2-20.4c1.9-5.3,4.2-11,7-16.8c-2.6-4.3-4.4-10.4-2.9-19.1c0,0,0.7-5.3,4.4-12.6c2.7-5.4,7.1-11.9,14-18.1
	c0,0,1.9-1.7,3.1-1.2c1.2,0.5,0.7,5.8-0.3,8.3c-1,2.5-8.2,15-8.2,15s-4.5,8.4-3.2,15.1c4-6.1,10.2-15,17-22
	c5.9-6,12.1-10.6,17.6-10.7c3.2,0,6.3,1.5,8.5,5.5c1.7,3.2,2.6,7.5,2.6,12C424.9,191.4,423.5,197.8,420.8,202.5 M186.4,154.3
	c0,0-1.3,2.3-1.6,2.7c-0.1,0.2-0.6,0.9-1.2,1.4c-0.4,0.4-0.9,0.7-1.6,0.7c-0.7,0.1-1.3-0.2-2-0.8c-1.7-1.5-2.7-3.9-2.8-6.1
	c0-1,0.1-2.1-0.1-3c-0.2-0.7-0.6-1.5-1.2-2.3c-0.5-0.7-1-1.3-1.3-2c-0.3-0.5-0.6-1.1-0.8-1.7c-0.7-1.7-0.9-3.2-0.9-4.6
	c-0.3-5.6,2.7-10.8,6.5-14.9c3.9-4.1,8.9-7.6,14.4-9.9c5.2-2.2,12.9-3.7,18.7-1.7c1.9,0.6,4.5,2.2,5.8,3.9c0.3,0.4,0.5,0.7,0.8,0.9
	c0.3,0.2,0.9,0.2,1.4,0.3c1.8,0.3,4.5,1.7,5.5,2.6c2.1,1.9,3.3,3.7,3.9,6.2c0.5,2.4,0.1,5.2-0.9,7.6c-1,2.6-2.7,5-4.4,6.8
	c-5.8,6-11.6,10.2-19.1,13.1c-2.4,0.9-5.6,1.7-8.1,2c-1.3,0.2-2.6,0.2-3.7,0.2c-1.3-0.1-2.6-0.2-3.7-0.4
	C190.1,155.5,187.3,154.9,186.4,154.3L186.4,154.3z M198.9,145.2c3-0.3,5.6-0.8,8-1.6c1.3-0.4,2.6-0.9,3.9-1.5
	c2.8-1.3,5.6-3.3,7.4-4.9c1-0.9,1.8-1.7,2.4-2.6c1.3-1.7,2.1-3.7,1.8-5.8c-0.2-1.7-1.3-3-2.8-3.7c-3.2-1.4-6.8,0.3-9.4,1.8
	c-1.9,1.1-4.7,3.2-7.3,5.4c-3.1,2.7-6.1,5.7-8,8.1c-1.1,1.4-2.1,2.9-3.1,4.4c0.2,0.4,3.6,0.6,5.5,0.5 M181.7,140.5
	c1-1.6,2.2-3.2,3.3-4.7c1.3-1.6,3.4-4.1,4.3-5c1.9-2,3.9-4,5.7-5.5c1-0.9,2.2-1.9,2.2-1.9s-0.8,0-1.9,0.2c-0.5,0.1-1.4,0.3-2.2,0.6
	c-0.9,0.3-1.7,0.6-2.3,1c-2.1,1-3.9,2.5-4.7,3.2c-1.6,1.3-3.2,3.1-4.3,5c-0.6,1.1-1,2.3-1.1,3.4c-0.1,0.8,0.1,1.6,0.4,2.4
	C181.3,139.7,181.5,140.1,181.7,140.5 M193.1,165.9c0.2,0,0.6,0.1,0.9,0.3c2.6,1,3.7,3.4,4.4,6.1c1.5,6.2,2.1,19.9,2.4,25.2
	c0.2,4,0.3,8,0.4,12c0.1,3.4,0.4,7.8-0.3,11c-0.3,1.1-1,2.5-2.1,3.1c-1.2,0.8-4.1,0.9-5.6,0.5c-3.8-0.8-5.1-3.3-5.6-7
	c-1.3-9.1-0.7-26.8,0.1-34.3c0.3-2.5,1.2-10.4,2.5-13.7C190.5,167.8,191.5,165.6,193.1,165.9 M52.3,100.6c-3.1,0-8.6,0-14.9,0.8
	c-4.4,0.5-8.9,1.4-13,2.5c-2.3,0.6-4.2,1.4-5.9,2.5c-1.9,1.2-3.5,2.9-4.7,5.1c-1.2,2.1-2.3,4.3-1.7,6.6c0.5,1.9,3.1,2.6,5.5,3
	c2.1,0.3,7,0.6,8.3-1c0.4-0.4,0.5-1.4,0-2.1c-0.5-0.9-1.7-1.5-2.9-1.7c-1-0.2-2.6-0.3-3.7-0.5c-0.7-0.1-1.1-0.2-1.3-0.3
	c0,0-0.1-0.1-0.1-0.1c-0.1,0-0.1-0.1-0.1-0.1s0,0,0.1-0.1c0.1-0.1,0.1-0.1,0.2-0.2c0.8-0.5,3.5-1.3,4.1-1.5c3-0.8,7.7-1.3,11.5-1.5
	c3.8-0.2,7.6-0.2,10.7-0.1c12.6,0.4,24.8,2.4,37,5.9c6.6,1.9,13.4,4.2,20.6,7.1c10.1,4,20.4,9.4,29.9,16.2c8.4,6,16,12.7,21.8,20.2
	c3.5,4.6,7.8,11.4,9.9,18.1c0.7,2.3,1.3,4.9,1.4,7.9c0.1,3-0.4,6.4-1.7,9.8c-2.4,6.3-7.5,12.2-15.9,16.6c-3.1,1.6-6.7,3-10.7,4.2
	c-4.3,1.2-8.8,2-13.3,2.5c-5.3,0.6-10.5,0.7-15.9,0.5c-0.8,0-2.3-0.1-4.1-0.3c-4.6-0.4-8.8-1.1-11.1-1.6l-0.8-38.7
	c6,0.1,12.6,0.8,18.8,1.9c3.5,0.6,9.3,1.8,16.6,4.1c1.5,0.5,3.2,1.5,3.3,3.1c0.1,0.7-0.2,1.2-0.6,1.8c-1.1,1.5-2.9,2.6-4.4,3.3
	c-0.9,0.4-1.7,0.8-2.1,1.2c-0.4,0.5-0.4,1.3,0.1,1.7c0.7,0.6,1.9,1,3.1,1.3c6,1.4,10-1.3,12.3-3.9c2.5-2.8,3.2-4.9,3.5-7.2
	c0.4-3.9-1.4-6.9-2.2-8.1c-2.2-3.1-5.6-5.2-8.3-6.5c-6.2-3-13.3-4.5-16.9-5.1c-4.6-0.8-10.4-1.5-17.1-1.6c-3.1-0.1-6.3,0.1-6.3,0.1
	s-0.1-5.3-0.4-8.7c-0.4-5.7-2-17-7.2-20.2c-1-0.6-2.1-0.6-2.8,0.2c-1,1.3-2,6.4-2.2,7.7c-0.2,1.2-0.4,2.8-0.7,4.4
	c-0.3,2.6-0.6,5.5-0.8,7.8c-0.1,1.3-0.4,5.6-0.5,10.1c-0.1,0.1-0.2,0.2-0.2,0.2c0,0-2.3,0.4-5.3,0.9c-9.9,2-16.7,4.7-19.4,5.9
	c-4.8,2.1-11.7,5.8-13.8,10.7c-0.5,1.2-0.7,2-0.7,3.2c-0.1,2.7,0.9,5.1,1.7,6.6c2.3,4.3,6.8,8.9,10.6,12.3c2.7,2.5,6.8,5.6,10,7.8
	c2.6,1.8,4.6,3.1,6.4,4.1c2.1,1.2,4.2,2.4,6.4,3.4c1.2,0.6,2.6,1.2,3.9,1.9c0,0,0.2,1.8,0.5,3.9c0.3,2.3,0.5,4.5,1.4,6.6
	c0.3,0.8,0.7,1.4,1.3,2.1c1.5,1.7,3.2,2,3.9,2.2c1.4,0.3,2.8,0.1,4.2-0.2c0.6-0.1,1.2-0.3,1.7-0.6c0.8-0.4,1.4-1,1.8-1.9
	c0.6-1.3,0.9-3.3,0.9-3.6c0.1-1.2,0-2.5,0-2.5s4.6,1.1,7.9,1.7c5.3,0.9,10.4,1.5,16.4,1.6c7.3,0.1,15.1-0.8,23.4-2.8
	c5-1.2,9.8-2.8,14.5-5c4.3-2,8.2-4.4,11.6-7.2c2.5-2.1,5.2-4.7,7.7-8.3c0.7-1,1.4-2,1.8-2.8c0.1-0.3,0.5-0.8,1.1-1.7
	c1.5-2.5,3.3-6.4,4.3-11.3c0.3-1.5,0.4-2.9,0.5-4.3c0.4-6.3-0.9-12.6-3.4-18.4c-0.6-1.4-2.5-6.2-6.8-12.3c-3.7-5.3-8-10.3-12.5-14.8
	c-3-3-5.3-5.1-9.1-8.3c-5.5-4.5-10.7-7.9-12.3-9c-5.3-3.5-11.4-6.9-16.8-9.5c-8.7-4.2-17.1-7.4-25.6-10c-2.7-0.8-5.4-1.6-8.1-2.3
	c-5.1-1.3-12.7-3.2-20.8-4.2C61,101,56.2,100.6,52.3,100.6L52.3,100.6z M76.4,180.9c0,0-0.1,5.7-0.2,11.5c0,6,0,12,0.1,16.3
	c0.1,3.6,0.1,5.9,0.1,5.9s-4.1-1.3-6.3-2.4c-3.9-1.7-7.6-3.6-11.2-5.9c-4.5-2.8-8.3-5.7-11.8-8.8c-0.7-0.6-2-1.9-2.6-2.5
	c-1.6-1.6-3.2-3.2-2.9-5.4c0.3-1.7,3.9-3.2,5.2-3.6c3.3-0.9,6.6-1.8,10-2.5c3.7-0.8,7.3-1.3,9.9-1.6
	C70.4,181.2,76.4,180.9,76.4,180.9L76.4,180.9z M141.1,283.6c24.3,0,47.2,19.1,47,47.1c-0.2,13.4-6.6,26.3-17.3,35
	c-8.5,6.9-16.3,11.2-32.5,10.8c-24.7-0.7-45.5-22-45.3-46.6C93.2,303.2,114.3,283.6,141.1,283.6L141.1,283.6z M141.4,298.7
	c-6.2,0-17.4,3.6-23,9.3c-7.2,7.3-10.9,18.2-8,29.7c3.4,13.9,16.2,24,30.4,23.6c16.9-0.5,30.6-14.1,30.6-31.6
	c0-16.3-12.3-29.5-28.3-30.9C142.2,298.8,142.4,298.7,141.4,298.7L141.4,298.7z M506.3,283.6v17c-14.3,0.5-21.6,9.2-21.6,24.1v34.9
	c0,9.1-7.4,14.8-16.5,14.8V286h15.5v7.9h0.4C487.9,288.1,494.7,284.2,506.3,283.6L506.3,283.6z M336.5,256.4v29.7h14.5v15.8h-14.5
	v74.9c-9.1,0-16.5-7.4-16.5-16.5V302h-6.9v-15.8h6.9v-29.7L336.5,256.4z M221.2,256.4v29.5h14.5v15.8h-14.5v75.1
	c-9.1,0-16.5-7.4-16.5-16.5v-58.7h-6.9V286h6.9v-29.5h16.5V256.4z M0,248.2c9.1,0,16.5,7.4,16.5,16.5v30.7h0.4
	c5.2-7.8,13.7-11.8,24.7-11.8c21,0,36.8,13.4,36.8,37.6v53.1H61.8v-48c0-18.9-7.3-27.5-22-27.5c-14.5,0-23.3,10.5-23.3,27.7v47.7H0
	V248.2z M273.7,283.6c14.7,0,26.6,10.6,27.1,26.2h-16.5c-0.8-6.4-4.5-10.6-11.3-10.6c-6.4,0-10.4,3.8-10.4,8.9
	c0,7.4,7.7,9.7,16.4,12.4c12.4,3.8,23.9,11.3,23.9,27.7c0,9.1-3.5,16.5-9.4,21.5c-5.2,4.3-12.2,7.3-20.2,7.3c-7.7,0-15.1-3-20.9-7.8
	c-6.2-5.3-10.3-13.3-10.3-23.9h16.5c0.8,10.6,6.3,16.1,15,16.1c7.7,0,12.8-5,12.8-12.1c0-6-4.6-10-15-13.4
	c-21.6-6.9-25.3-16.2-25.3-26.2C246,294,259.3,283.6,273.7,283.6L273.7,283.6z M401.6,283.6c12.9,0,23.8,4.7,30.6,14.8h0.4V286h16.5
	v88.3h-16.5v-13.7h-0.4c-4,6.7-9.9,11.1-16.8,13.6c-4,1.4-9.6,2.7-14.2,2.7c-10.3,0-18.3-3.3-26-8.7c-11.6-8-19.4-21.3-19.4-36.6
	C355.6,303.4,375.7,283.6,401.6,283.6z M402,299.2c-3.8,0-7.4,0.3-10.8,1.7c-12,4.9-20.3,17.8-19.1,32.4
	c1.3,15.4,13.9,27.8,29.3,28.1c10.2,0.2,19.1-4.6,24.8-12c4.1-5.3,6.7-12,6.7-19.1c0.1-6-1.5-11.6-4.2-16.4c-1.6-2.8-3.6-5.4-6-7.5
	C417.3,301.6,410.2,299.2,402,299.2z"/>
</svg>
